<mxfile host="app.diagrams.net" modified="2023-03-02T12:52:24.477Z" agent="5.0 (Macintosh; Intel Mac OS X 10_15_7) AppleWebKit/537.36 (KHTML, like Gecko) Chrome/110.0.0.0 Safari/537.36" etag="N8qSm61Ark9WDGt7kn4l" version="20.8.23" type="github">
  <diagram name="第 1 页" id="SOVxK3vzPoG8Y1V6RYhI">
    <mxGraphModel dx="1434" dy="796" grid="1" gridSize="10" guides="1" tooltips="1" connect="1" arrows="1" fold="1" page="1" pageScale="1" pageWidth="3300" pageHeight="4681" math="0" shadow="0">
      <root>
        <mxCell id="0" />
        <mxCell id="1" parent="0" />
        <mxCell id="tWhwSnlnQnM3Uw6_wZ_l-1" value="" style="ellipse;whiteSpace=wrap;html=1;fillColor=#dae8fc;strokeColor=#6c8ebf;" vertex="1" parent="1">
          <mxGeometry x="320" y="120" width="790" height="450" as="geometry" />
        </mxCell>
        <mxCell id="tWhwSnlnQnM3Uw6_wZ_l-2" value="人工智能 AI" style="text;html=1;align=center;verticalAlign=middle;resizable=0;points=[];autosize=1;strokeColor=none;fillColor=none;" vertex="1" parent="1">
          <mxGeometry x="670" y="140" width="90" height="30" as="geometry" />
        </mxCell>
        <mxCell id="tWhwSnlnQnM3Uw6_wZ_l-3" value="" style="ellipse;whiteSpace=wrap;html=1;fillColor=#d5e8d4;strokeColor=#82b366;" vertex="1" parent="1">
          <mxGeometry x="380" y="180" width="710" height="340" as="geometry" />
        </mxCell>
        <mxCell id="tWhwSnlnQnM3Uw6_wZ_l-4" value="Machine learning 机器学习" style="text;html=1;align=center;verticalAlign=middle;resizable=0;points=[];autosize=1;strokeColor=none;fillColor=none;" vertex="1" parent="1">
          <mxGeometry x="630" y="200" width="170" height="30" as="geometry" />
        </mxCell>
        <mxCell id="tWhwSnlnQnM3Uw6_wZ_l-5" value="" style="ellipse;whiteSpace=wrap;html=1;fillColor=#ffe6cc;strokeColor=#d79b00;" vertex="1" parent="1">
          <mxGeometry x="455" y="230" width="520" height="270" as="geometry" />
        </mxCell>
        <mxCell id="tWhwSnlnQnM3Uw6_wZ_l-6" value="Deep learning深度学习" style="text;html=1;align=center;verticalAlign=middle;resizable=0;points=[];autosize=1;strokeColor=none;fillColor=none;" vertex="1" parent="1">
          <mxGeometry x="645" y="250" width="150" height="30" as="geometry" />
        </mxCell>
        <mxCell id="tWhwSnlnQnM3Uw6_wZ_l-8" value="" style="ellipse;whiteSpace=wrap;html=1;fillColor=#fff2cc;strokeColor=#d6b656;" vertex="1" parent="1">
          <mxGeometry x="520" y="290" width="410" height="200" as="geometry" />
        </mxCell>
        <mxCell id="tWhwSnlnQnM3Uw6_wZ_l-9" value="Neural networks 神经网络" style="text;html=1;align=center;verticalAlign=middle;resizable=0;points=[];autosize=1;strokeColor=none;fillColor=none;" vertex="1" parent="1">
          <mxGeometry x="645" y="310" width="160" height="30" as="geometry" />
        </mxCell>
      </root>
    </mxGraphModel>
  </diagram>
</mxfile>
